<svg xmlns="http://www.w3.org/2000/svg" xmlns:xlink="http://www.w3.org/1999/xlink" viewBox="0 0 500 500"><defs><clipPath id="freepik--clip-path--inject-3"><path d="M232,237h-3.2a25.87,25.87,0,0,0-24.31,17.05l-18.72,51.72a3.66,3.66,0,0,0,3.44,4.9H284a6.33,6.33,0,0,0,6.33-6.34V245.17a8.16,8.16,0,0,0-8.16-8.17Z" style="fill:#757575;stroke:#263238;stroke-linecap:round;stroke-linejoin:round"></path></clipPath><clipPath id="freepik--clip-path-2--inject-3"><path d="M281,275.8s9.68,7.83,12.21,13.59,6,22.11,6,22.11H240.49s15.66-18,22.11-23.72S281,275.8,281,275.8Z" style="fill:#fff;stroke:#263238;stroke-linecap:round;stroke-linejoin:round"></path></clipPath><clipPath id="freepik--clip-path-3--inject-3"><path d="M299.67,243.4v62.27A5.33,5.33,0,0,0,305,311h51l-15-51a29.65,29.65,0,0,0-8.54-13.62h0a29.68,29.68,0,0,0-19.14-7.69l-8.6-.23A4.94,4.94,0,0,0,299.67,243.4Z" style="fill:#757575;stroke:#263238;stroke-linecap:round;stroke-linejoin:round"></path></clipPath><clipPath id="freepik--clip-path-4--inject-3"><circle cx="154.83" cy="371.5" r="31.17" style="fill:#263238;stroke:#263238;stroke-linecap:round;stroke-linejoin:round"></circle></clipPath><clipPath id="freepik--clip-path-5--inject-3"><circle cx="330.83" cy="371.5" r="31.17" transform="translate(-153.44 485.27) rotate(-61.53)" style="fill:#263238;stroke:#263238;stroke-linecap:round;stroke-linejoin:round"></circle></clipPath></defs><g id="freepik--background-simple--inject-3"><path d="M425.6,320.52a183.58,183.58,0,0,0,.74-38.44c-9-112-98.17-230.55-198.61-203.07C193,88.5,167.31,114.43,152,151.68,140.76,179,132.79,211,114.51,232.85c-30,35.9-66.16,92.06-20.67,141.1s101.31,17.2,148.86,14.67c40-2.13,80.37,13.52,120.22,7.89C400.77,391.16,420.45,360,425.6,320.52Z" style="fill:#211749"></path><path d="M425.6,320.52a183.58,183.58,0,0,0,.74-38.44c-9-112-98.17-230.55-198.61-203.07C193,88.5,167.31,114.43,152,151.68,140.76,179,132.79,211,114.51,232.85c-30,35.9-66.16,92.06-20.67,141.1s101.31,17.2,148.86,14.67c40-2.13,80.37,13.52,120.22,7.89C400.77,391.16,420.45,360,425.6,320.52Z" style="fill:#fff;opacity:0.8"></path></g><g id="freepik--Clouds--inject-3"><path d="M414.44,160.51c-4.46-2.43-6.49-.41-8.11-2.43s4.46-7.3-7.7-12.57c0,0-.81-11.35-17.43-11.76S369,145.1,364.57,147.94s-5.67-1.62-10.13,1.22-2.43,8.51-6.08,9.32-8.52-3.65-13-.81-4.45,5.27-6.48,5.27-6.08-1.62-8.52,0-5.27,3.65-5.27,3.65H417.68S418.9,162.94,414.44,160.51Z" style="fill:#fff;stroke:#263238;stroke-linecap:round;stroke-linejoin:round"></path><path d="M157.28,220.52c-2.25-1.23-3.28-.21-4.1-1.23s2.26-3.69-3.89-6.35c0,0-.41-5.73-8.8-5.93s-6.14,5.73-8.4,7.16-2.86-.82-5.11.62-1.23,4.3-3.08,4.71-4.3-1.85-6.55-.41-2.25,2.66-3.27,2.66-3.08-.82-4.3,0-2.67,1.84-2.67,1.84h51.81S159.53,221.75,157.28,220.52Z" style="fill:#fff;stroke:#263238;stroke-linecap:round;stroke-linejoin:round"></path><path d="M251.28,131.52c-2.25-1.23-3.28-.21-4.1-1.23s2.26-3.69-3.89-6.35c0,0-.41-5.73-8.8-5.93s-6.14,5.73-8.4,7.16-2.86-.82-5.11.62-1.23,4.3-3.08,4.71-4.3-1.85-6.55-.41-2.25,2.66-3.27,2.66-3.08-.82-4.3,0-2.67,1.84-2.67,1.84h51.81S253.53,132.75,251.28,131.52Z" style="fill:#fff;stroke:#263238;stroke-linecap:round;stroke-linejoin:round"></path></g><g id="freepik--Trees--inject-3"><path d="M385.77,402.67H434c-.92-5.89-4.71-4.85-5.21-14-.25-4.6,4-10.29,3.64-16.33-.31-5-5.22-10.08-5.6-15.78-.34-5.14,3.85-10.84,3.44-16.38-.38-5.23-5.36-10.26-5.8-15.7s3.67-11.07,3.19-16.43-5.55-10.31-6.08-15.6,3.41-11.29,2.81-16.5c-.65-5.52-5.86-10.3-6.57-15.39-.79-5.67,2.91-11.72,2-16.61-1.06-6-6.64-10.34-7.81-14.76-2.19-8.24-1.92-16.19-4.5-16.7-2.76-.56-3.39,7.23-5.48,15.93-1,4.38-6.51,8.81-7.4,14.81-.73,4.86,3.13,10.76,2.5,16.41-.57,5.05-5.65,9.91-6.14,15.41-.47,5.17,3.66,10.87,3.25,16.27s-5.33,10.27-5.67,15.6,3.91,10.93,3.62,16.19-5.13,10.5-5.38,15.7c-.26,5.49,4.07,11,3.86,16.13-.23,5.65-5,10.83-5.18,15.77-.22,6,4.18,11.52,4.05,16.08-.3,9.91-4.83,7.86-5,15.83Z" style="fill:#211749"></path><path d="M385.77,402.67H434c-.92-5.89-4.71-4.85-5.21-14-.25-4.6,4-10.29,3.64-16.33-.31-5-5.22-10.08-5.6-15.78-.34-5.14,3.85-10.84,3.44-16.38-.38-5.23-5.36-10.26-5.8-15.7s3.67-11.07,3.19-16.43-5.55-10.31-6.08-15.6,3.41-11.29,2.81-16.5c-.65-5.52-5.86-10.3-6.57-15.39-.79-5.67,2.91-11.72,2-16.61-1.06-6-6.64-10.34-7.81-14.76-2.19-8.24-1.92-16.19-4.5-16.7-2.76-.56-3.39,7.23-5.48,15.93-1,4.38-6.51,8.81-7.4,14.81-.73,4.86,3.13,10.76,2.5,16.41-.57,5.05-5.65,9.91-6.14,15.41-.47,5.17,3.66,10.87,3.25,16.27s-5.33,10.27-5.67,15.6,3.91,10.93,3.62,16.19-5.13,10.5-5.38,15.7c-.26,5.49,4.07,11,3.86,16.13-.23,5.65-5,10.83-5.18,15.77-.22,6,4.18,11.52,4.05,16.08-.3,9.91-4.83,7.86-5,15.83Z" style="fill:#fff;opacity:0.5"></path><line x1="406.46" y1="228.34" x2="406.46" y2="400.45" style="fill:none;stroke:#263238;stroke-miterlimit:10"></line><polyline points="413.98 246.38 406.14 253.15 399.72 244.59" style="fill:none;stroke:#263238;stroke-miterlimit:10"></polyline><polyline points="413.98 276.34 406.14 283.11 399.72 274.55" style="fill:none;stroke:#263238;stroke-miterlimit:10"></polyline><polyline points="413.98 304.51 406.14 311.29 399.72 302.73" style="fill:none;stroke:#263238;stroke-miterlimit:10"></polyline><polyline points="413.98 338.04 406.14 344.81 399.72 336.25" style="fill:none;stroke:#263238;stroke-miterlimit:10"></polyline><polyline points="413.98 371.92 406.14 378.69 399.72 370.13" style="fill:none;stroke:#263238;stroke-miterlimit:10"></polyline><path d="M61,402.67h48.2c-.93-5.89-4.71-4.85-5.22-14-.25-4.6,4-10.29,3.64-16.33-.3-5-5.21-10.08-5.59-15.78-.35-5.14,3.84-10.84,3.44-16.38-.39-5.23-5.36-10.26-5.8-15.7s3.67-11.07,3.19-16.43-5.55-10.31-6.09-15.6,3.42-11.29,2.81-16.5c-.64-5.52-5.86-10.3-6.56-15.39-.79-5.67,2.9-11.72,2-16.61-1.06-6-6.64-10.34-7.82-14.76C85.09,221,85.36,213,82.78,212.5c-2.76-.56-3.39,7.23-5.48,15.93-1,4.38-6.51,8.81-7.41,14.81-.72,4.86,3.14,10.76,2.5,16.41-.56,5.05-5.64,9.91-6.14,15.41-.46,5.17,3.66,10.87,3.26,16.27s-5.33,10.27-5.67,15.6,3.91,10.93,3.62,16.19-5.14,10.5-5.39,15.7c-.26,5.49,4.08,11,3.87,16.13-.24,5.65-5,10.83-5.19,15.77-.21,6,4.19,11.52,4,16.08-.29,9.91-4.83,7.86-5,15.83Z" style="fill:#211749"></path><path d="M61,402.67h48.2c-.93-5.89-4.71-4.85-5.22-14-.25-4.6,4-10.29,3.64-16.33-.3-5-5.21-10.08-5.59-15.78-.35-5.14,3.84-10.84,3.44-16.38-.39-5.23-5.36-10.26-5.8-15.7s3.67-11.07,3.19-16.43-5.55-10.31-6.09-15.6,3.42-11.29,2.81-16.5c-.64-5.52-5.86-10.3-6.56-15.39-.79-5.67,2.9-11.72,2-16.61-1.06-6-6.64-10.34-7.82-14.76C85.09,221,85.36,213,82.78,212.5c-2.76-.56-3.39,7.23-5.48,15.93-1,4.38-6.51,8.81-7.41,14.81-.72,4.86,3.14,10.76,2.5,16.41-.56,5.05-5.64,9.91-6.14,15.41-.46,5.17,3.66,10.87,3.26,16.27s-5.33,10.27-5.67,15.6,3.91,10.93,3.62,16.19-5.14,10.5-5.39,15.7c-.26,5.49,4.08,11,3.87,16.13-.24,5.65-5,10.83-5.19,15.77-.21,6,4.19,11.52,4,16.08-.29,9.91-4.83,7.86-5,15.83Z" style="fill:#fff;opacity:0.5"></path><line x1="81.72" y1="228.34" x2="81.72" y2="400.45" style="fill:none;stroke:#263238;stroke-miterlimit:10"></line><polyline points="89.25 246.38 81.4 253.15 74.98 244.59" style="fill:none;stroke:#263238;stroke-miterlimit:10"></polyline><polyline points="89.25 276.34 81.4 283.11 74.98 274.55" style="fill:none;stroke:#263238;stroke-miterlimit:10"></polyline><polyline points="89.25 304.51 81.4 311.29 74.98 302.73" style="fill:none;stroke:#263238;stroke-miterlimit:10"></polyline><polyline points="89.25 338.04 81.4 344.81 74.98 336.25" style="fill:none;stroke:#263238;stroke-miterlimit:10"></polyline><polyline points="89.25 371.92 81.4 378.69 74.98 370.13" style="fill:none;stroke:#263238;stroke-miterlimit:10"></polyline><path d="M314.71,402.67h36c-.69-4.4-3.52-3.62-3.89-10.45-.19-3.43,3-7.68,2.71-12.2-.22-3.72-3.89-7.53-4.17-11.78-.26-3.84,2.87-8.1,2.56-12.23-.28-3.92-4-7.67-4.33-11.73S346.33,336,346,332s-4.15-7.69-4.55-11.64,2.55-8.44,2.1-12.33c-.48-4.13-4.38-7.69-4.9-11.49-.59-4.24,2.17-8.76,1.52-12.41-.79-4.48-5-7.72-5.84-11C332.67,267,332.87,261,331,260.63s-2.53,5.4-4.1,11.9c-.78,3.27-4.86,6.58-5.53,11.06-.54,3.63,2.34,8,1.87,12.26-.42,3.77-4.22,7.4-4.59,11.51-.35,3.86,2.74,8.12,2.43,12.15s-4,7.67-4.23,11.65,2.92,8.16,2.71,12.1-3.84,7.84-4,11.72c-.19,4.1,3,8.24,2.89,12-.18,4.22-3.74,8.09-3.88,11.77-.15,4.48,3.13,8.61,3,12-.22,7.4-3.61,5.87-3.73,11.82Z" style="fill:#211749"></path><path d="M314.71,402.67h36c-.69-4.4-3.52-3.62-3.89-10.45-.19-3.43,3-7.68,2.71-12.2-.22-3.72-3.89-7.53-4.17-11.78-.26-3.84,2.87-8.1,2.56-12.23-.28-3.92-4-7.67-4.33-11.73S346.33,336,346,332s-4.15-7.69-4.55-11.64,2.55-8.44,2.1-12.33c-.48-4.13-4.38-7.69-4.9-11.49-.59-4.24,2.17-8.76,1.52-12.41-.79-4.48-5-7.72-5.84-11C332.67,267,332.87,261,331,260.63s-2.53,5.4-4.1,11.9c-.78,3.27-4.86,6.58-5.53,11.06-.54,3.63,2.34,8,1.87,12.26-.42,3.77-4.22,7.4-4.59,11.51-.35,3.86,2.74,8.12,2.43,12.15s-4,7.67-4.23,11.65,2.92,8.16,2.71,12.1-3.84,7.84-4,11.72c-.19,4.1,3,8.24,2.89,12-.18,4.22-3.74,8.09-3.88,11.77-.15,4.48,3.13,8.61,3,12-.22,7.4-3.61,5.87-3.73,11.82Z" style="fill:#fff;opacity:0.5"></path><line x1="330.16" y1="272.46" x2="330.16" y2="401.01" style="fill:none;stroke:#263238;stroke-miterlimit:10"></line><polyline points="335.78 285.94 329.92 291 325.12 284.6" style="fill:none;stroke:#263238;stroke-miterlimit:10"></polyline><polyline points="335.78 308.31 329.92 313.37 325.12 306.98" style="fill:none;stroke:#263238;stroke-miterlimit:10"></polyline><polyline points="335.78 329.36 329.92 334.42 325.12 328.02" style="fill:none;stroke:#263238;stroke-miterlimit:10"></polyline><polyline points="335.78 354.39 329.92 359.46 325.12 353.06" style="fill:none;stroke:#263238;stroke-miterlimit:10"></polyline><polyline points="335.78 379.7 329.92 384.76 325.12 378.37" style="fill:none;stroke:#263238;stroke-miterlimit:10"></polyline><path d="M429.71,402.67h36c-.69-4.4-3.52-3.62-3.89-10.45-.19-3.43,3-7.68,2.71-12.2-.22-3.72-3.89-7.53-4.17-11.78-.26-3.84,2.87-8.1,2.56-12.23-.28-3.92-4-7.67-4.33-11.73S461.33,336,461,332s-4.15-7.69-4.55-11.64,2.55-8.44,2.1-12.33c-.48-4.13-4.38-7.69-4.9-11.49-.59-4.24,2.17-8.76,1.52-12.41-.79-4.48-5-7.72-5.84-11C447.67,267,447.87,261,446,260.63s-2.53,5.4-4.1,11.9c-.78,3.27-4.86,6.58-5.53,11.06-.54,3.63,2.34,8,1.87,12.26-.42,3.77-4.22,7.4-4.59,11.51-.35,3.86,2.74,8.12,2.43,12.15s-4,7.67-4.23,11.65,2.92,8.16,2.71,12.1-3.84,7.84-4,11.72c-.19,4.1,3,8.24,2.89,12-.18,4.22-3.74,8.09-3.88,11.77-.15,4.48,3.13,8.61,3,12-.22,7.4-3.61,5.87-3.73,11.82Z" style="fill:#211749"></path><path d="M429.71,402.67h36c-.69-4.4-3.52-3.62-3.89-10.45-.19-3.43,3-7.68,2.71-12.2-.22-3.72-3.89-7.53-4.17-11.78-.26-3.84,2.87-8.1,2.56-12.23-.28-3.92-4-7.67-4.33-11.73S461.33,336,461,332s-4.15-7.69-4.55-11.64,2.55-8.44,2.1-12.33c-.48-4.13-4.38-7.69-4.9-11.49-.59-4.24,2.17-8.76,1.52-12.41-.79-4.48-5-7.72-5.84-11C447.67,267,447.87,261,446,260.63s-2.53,5.4-4.1,11.9c-.78,3.27-4.86,6.58-5.53,11.06-.54,3.63,2.34,8,1.87,12.26-.42,3.77-4.22,7.4-4.59,11.51-.35,3.86,2.74,8.12,2.43,12.15s-4,7.67-4.23,11.65,2.92,8.16,2.71,12.1-3.84,7.84-4,11.72c-.19,4.1,3,8.24,2.89,12-.18,4.22-3.74,8.09-3.88,11.77-.15,4.48,3.13,8.61,3,12-.22,7.4-3.61,5.87-3.73,11.82Z" style="fill:#fff;opacity:0.5"></path><line x1="445.16" y1="272.46" x2="445.16" y2="401.01" style="fill:none;stroke:#263238;stroke-miterlimit:10"></line><polyline points="450.78 285.94 444.92 291 440.12 284.6" style="fill:none;stroke:#263238;stroke-miterlimit:10"></polyline><polyline points="450.78 308.31 444.92 313.37 440.12 306.98" style="fill:none;stroke:#263238;stroke-miterlimit:10"></polyline><polyline points="450.78 329.36 444.92 334.42 440.12 328.02" style="fill:none;stroke:#263238;stroke-miterlimit:10"></polyline><polyline points="450.78 354.39 444.92 359.46 440.12 353.06" style="fill:none;stroke:#263238;stroke-miterlimit:10"></polyline><polyline points="450.78 379.7 444.92 384.76 440.12 378.37" style="fill:none;stroke:#263238;stroke-miterlimit:10"></polyline><path d="M275,402.67h36c-.7-4.4-3.52-3.62-3.9-10.45-.19-3.43,3-7.68,2.72-12.2-.23-3.72-3.89-7.53-4.18-11.78-.26-3.84,2.87-8.1,2.57-12.23-.29-3.92-4-7.67-4.33-11.73s2.74-8.27,2.38-12.28-4.14-7.69-4.55-11.64,2.56-8.44,2.1-12.33c-.48-4.13-4.37-7.69-4.9-11.49-.59-4.24,2.17-8.76,1.52-12.41-.79-4.48-4.95-7.72-5.83-11C293,267,293.19,261,291.26,260.63s-2.53,5.4-4.09,11.9c-.79,3.27-4.86,6.58-5.53,11.06-.55,3.63,2.34,8,1.86,12.26-.42,3.77-4.21,7.4-4.58,11.51-.35,3.86,2.73,8.12,2.43,12.15s-4,7.67-4.24,11.65,2.93,8.16,2.71,12.1-3.84,7.84-4,11.72c-.2,4.1,3,8.24,2.88,12-.17,4.22-3.74,8.09-3.87,11.77-.16,4.48,3.13,8.61,3,12-.22,7.4-3.6,5.87-3.72,11.82Z" style="fill:#211749"></path><path d="M275,402.67h36c-.7-4.4-3.52-3.62-3.9-10.45-.19-3.43,3-7.68,2.72-12.2-.23-3.72-3.89-7.53-4.18-11.78-.26-3.84,2.87-8.1,2.57-12.23-.29-3.92-4-7.67-4.33-11.73s2.74-8.27,2.38-12.28-4.14-7.69-4.55-11.64,2.56-8.44,2.1-12.33c-.48-4.13-4.37-7.69-4.9-11.49-.59-4.24,2.17-8.76,1.52-12.41-.79-4.48-4.95-7.72-5.83-11C293,267,293.19,261,291.26,260.63s-2.53,5.4-4.09,11.9c-.79,3.27-4.86,6.58-5.53,11.06-.55,3.63,2.34,8,1.86,12.26-.42,3.77-4.21,7.4-4.58,11.51-.35,3.86,2.73,8.12,2.43,12.15s-4,7.67-4.24,11.65,2.93,8.16,2.71,12.1-3.84,7.84-4,11.72c-.2,4.1,3,8.24,2.88,12-.17,4.22-3.74,8.09-3.87,11.77-.16,4.48,3.13,8.61,3,12-.22,7.4-3.6,5.87-3.72,11.82Z" style="fill:#fff;opacity:0.5"></path><line x1="290.47" y1="272.46" x2="290.47" y2="401.01" style="fill:none;stroke:#263238;stroke-miterlimit:10"></line><polyline points="296.09 285.94 290.23 291 285.44 284.6" style="fill:none;stroke:#263238;stroke-miterlimit:10"></polyline><polyline points="296.09 308.31 290.23 313.37 285.44 306.98" style="fill:none;stroke:#263238;stroke-miterlimit:10"></polyline><polyline points="296.09 329.36 290.23 334.42 285.44 328.02" style="fill:none;stroke:#263238;stroke-miterlimit:10"></polyline><polyline points="296.09 354.39 290.23 359.46 285.44 353.06" style="fill:none;stroke:#263238;stroke-miterlimit:10"></polyline><polyline points="296.09 379.7 290.23 384.76 285.44 378.37" style="fill:none;stroke:#263238;stroke-miterlimit:10"></polyline><path d="M205.1,402.67h36c-.69-4.4-3.52-3.62-3.89-10.45-.19-3.43,3-7.68,2.71-12.2-.22-3.72-3.89-7.53-4.17-11.78-.26-3.84,2.87-8.1,2.57-12.23-.29-3.92-4-7.67-4.34-11.73s2.75-8.27,2.39-12.28-4.15-7.69-4.55-11.64,2.55-8.44,2.1-12.33c-.48-4.13-4.38-7.69-4.9-11.49-.59-4.24,2.17-8.76,1.52-12.41-.79-4.48-5-7.72-5.84-11-1.63-6.15-1.43-12.09-3.35-12.47-2.07-.41-2.53,5.4-4.1,11.9-.78,3.27-4.86,6.58-5.53,11.06-.54,3.63,2.34,8,1.87,12.26-.42,3.77-4.22,7.4-4.59,11.51-.35,3.86,2.74,8.12,2.43,12.15s-4,7.67-4.23,11.65,2.92,8.16,2.71,12.1-3.84,7.84-4,11.72c-.19,4.1,3,8.24,2.89,12-.18,4.22-3.74,8.09-3.88,11.77-.15,4.48,3.13,8.61,3,12-.22,7.4-3.61,5.87-3.73,11.82Z" style="fill:#211749"></path><path d="M205.1,402.67h36c-.69-4.4-3.52-3.62-3.89-10.45-.19-3.43,3-7.68,2.71-12.2-.22-3.72-3.89-7.53-4.17-11.78-.26-3.84,2.87-8.1,2.57-12.23-.29-3.92-4-7.67-4.34-11.73s2.75-8.27,2.39-12.28-4.15-7.69-4.55-11.64,2.55-8.44,2.1-12.33c-.48-4.13-4.38-7.69-4.9-11.49-.59-4.24,2.17-8.76,1.52-12.41-.79-4.48-5-7.72-5.84-11-1.63-6.15-1.43-12.09-3.35-12.47-2.07-.41-2.53,5.4-4.1,11.9-.78,3.27-4.86,6.58-5.53,11.06-.54,3.63,2.34,8,1.87,12.26-.42,3.77-4.22,7.4-4.59,11.51-.35,3.86,2.74,8.12,2.43,12.15s-4,7.67-4.23,11.65,2.92,8.16,2.71,12.1-3.84,7.84-4,11.72c-.19,4.1,3,8.24,2.89,12-.18,4.22-3.74,8.09-3.88,11.77-.15,4.48,3.13,8.61,3,12-.22,7.4-3.61,5.87-3.73,11.82Z" style="fill:#fff;opacity:0.5"></path><line x1="220.55" y1="272.46" x2="220.55" y2="401.01" style="fill:none;stroke:#263238;stroke-miterlimit:10"></line><polyline points="226.17 285.94 220.31 291 215.51 284.6" style="fill:none;stroke:#263238;stroke-miterlimit:10"></polyline><polyline points="226.17 308.31 220.31 313.37 215.51 306.98" style="fill:none;stroke:#263238;stroke-miterlimit:10"></polyline><polyline points="226.17 329.36 220.31 334.42 215.51 328.02" style="fill:none;stroke:#263238;stroke-miterlimit:10"></polyline><polyline points="226.17 354.39 220.31 359.46 215.51 353.06" style="fill:none;stroke:#263238;stroke-miterlimit:10"></polyline><polyline points="226.17 379.7 220.31 384.76 215.51 378.37" style="fill:none;stroke:#263238;stroke-miterlimit:10"></polyline><path d="M117.13,391.34h30.22c-.58-3.7-2.95-3-3.27-8.78-.16-2.88,2.51-6.45,2.28-10.24-.19-3.12-3.27-6.32-3.51-9.89-.21-3.23,2.42-6.8,2.16-10.27-.24-3.29-3.36-6.44-3.64-9.85s2.31-6.94,2-10.3-3.47-6.46-3.81-9.78,2.14-7.08,1.76-10.35c-.4-3.46-3.67-6.46-4.12-9.65-.49-3.55,1.83-7.35,1.28-10.42-.66-3.76-4.16-6.48-4.9-9.25-1.37-5.17-1.2-10.15-2.82-10.47s-2.12,4.53-3.43,10c-.66,2.74-4.08,5.52-4.64,9.28-.46,3.05,2,6.75,1.56,10.29-.35,3.17-3.54,6.22-3.85,9.67-.29,3.24,2.3,6.81,2,10.2s-3.34,6.43-3.55,9.78,2.45,6.85,2.27,10.15-3.22,6.59-3.38,9.85c-.16,3.44,2.56,6.92,2.42,10.11-.14,3.54-3.14,6.79-3.25,9.89-.13,3.75,2.63,7.22,2.54,10.08-.18,6.22-3,4.93-3.13,9.93Z" style="fill:#211749"></path><path d="M117.13,391.34h30.22c-.58-3.7-2.95-3-3.27-8.78-.16-2.88,2.51-6.45,2.28-10.24-.19-3.12-3.27-6.32-3.51-9.89-.21-3.23,2.42-6.8,2.16-10.27-.24-3.29-3.36-6.44-3.64-9.85s2.31-6.94,2-10.3-3.47-6.46-3.81-9.78,2.14-7.08,1.76-10.35c-.4-3.46-3.67-6.46-4.12-9.65-.49-3.55,1.83-7.35,1.28-10.42-.66-3.76-4.16-6.48-4.9-9.25-1.37-5.17-1.2-10.15-2.82-10.47s-2.12,4.53-3.43,10c-.66,2.74-4.08,5.52-4.64,9.28-.46,3.05,2,6.75,1.56,10.29-.35,3.17-3.54,6.22-3.85,9.67-.29,3.24,2.3,6.81,2,10.2s-3.34,6.43-3.55,9.78,2.45,6.85,2.27,10.15-3.22,6.59-3.38,9.85c-.16,3.44,2.56,6.92,2.42,10.11-.14,3.54-3.14,6.79-3.25,9.89-.13,3.75,2.63,7.22,2.54,10.08-.18,6.22-3,4.93-3.13,9.93Z" style="fill:#fff;opacity:0.5"></path><line x1="130.1" y1="282.02" x2="130.1" y2="389.94" style="fill:none;stroke:#263238;stroke-miterlimit:10"></line><polyline points="134.82 293.33 129.9 297.58 125.88 292.21" style="fill:none;stroke:#263238;stroke-miterlimit:10"></polyline><polyline points="134.82 312.12 129.9 316.37 125.88 311" style="fill:none;stroke:#263238;stroke-miterlimit:10"></polyline><polyline points="134.82 329.78 129.9 334.03 125.88 328.67" style="fill:none;stroke:#263238;stroke-miterlimit:10"></polyline><polyline points="134.82 350.81 129.9 355.05 125.88 349.69" style="fill:none;stroke:#263238;stroke-miterlimit:10"></polyline><polyline points="134.82 372.05 129.9 376.3 125.88 370.93" style="fill:none;stroke:#263238;stroke-miterlimit:10"></polyline><path d="M162.91,402.67h44.16c-.85-5.4-4.32-4.45-4.78-12.82-.23-4.21,3.67-9.43,3.34-15-.28-4.57-4.78-9.24-5.13-14.46-.31-4.71,3.52-9.93,3.15-15-.35-4.8-4.91-9.4-5.31-14.39s3.36-10.14,2.92-15.06-5.08-9.43-5.58-14.28,3.14-10.35,2.58-15.12c-.59-5.07-5.37-9.44-6-14.1-.72-5.2,2.67-10.75,1.87-15.23-1-5.49-6.08-9.47-7.16-13.52-2-7.55-1.75-14.83-4.12-15.31-2.52-.5-3.1,6.63-5,14.61-1,4-6,8.06-6.78,13.56-.67,4.45,2.87,9.87,2.29,15-.52,4.63-5.18,9.08-5.63,14.12-.43,4.74,3.35,10,3,14.91s-4.88,9.41-5.19,14.29,3.59,10,3.32,14.84-4.71,9.62-4.94,14.38c-.24,5,3.74,10.12,3.54,14.79-.21,5.17-4.59,9.92-4.75,14.44-.19,5.49,3.84,10.56,3.71,14.74-.27,9.08-4.42,7.2-4.57,14.5Z" style="fill:#211749"></path><path d="M162.91,402.67h44.16c-.85-5.4-4.32-4.45-4.78-12.82-.23-4.21,3.67-9.43,3.34-15-.28-4.57-4.78-9.24-5.13-14.46-.31-4.71,3.52-9.93,3.15-15-.35-4.8-4.91-9.4-5.31-14.39s3.36-10.14,2.92-15.06-5.08-9.43-5.58-14.28,3.14-10.35,2.58-15.12c-.59-5.07-5.37-9.44-6-14.1-.72-5.2,2.67-10.75,1.87-15.23-1-5.49-6.08-9.47-7.16-13.52-2-7.55-1.75-14.83-4.12-15.31-2.52-.5-3.1,6.63-5,14.61-1,4-6,8.06-6.78,13.56-.67,4.45,2.87,9.87,2.29,15-.52,4.63-5.18,9.08-5.63,14.12-.43,4.74,3.35,10,3,14.91s-4.88,9.41-5.19,14.29,3.59,10,3.32,14.84-4.71,9.62-4.94,14.38c-.24,5,3.74,10.12,3.54,14.79-.21,5.17-4.59,9.92-4.75,14.44-.19,5.49,3.84,10.56,3.71,14.74-.27,9.08-4.42,7.2-4.57,14.5Z" style="fill:#fff;opacity:0.5"></path><line x1="181.87" y1="242.93" x2="181.87" y2="400.64" style="fill:none;stroke:#263238;stroke-miterlimit:10"></line><polyline points="188.76 259.46 181.57 265.67 175.69 257.83" style="fill:none;stroke:#263238;stroke-miterlimit:10"></polyline><polyline points="188.76 286.91 181.57 293.12 175.69 285.28" style="fill:none;stroke:#263238;stroke-miterlimit:10"></polyline><polyline points="188.76 312.73 181.57 318.94 175.69 311.09" style="fill:none;stroke:#263238;stroke-miterlimit:10"></polyline><polyline points="188.76 343.45 181.57 349.65 175.69 341.81" style="fill:none;stroke:#263238;stroke-miterlimit:10"></polyline><polyline points="188.76 374.49 181.57 380.7 175.69 372.86" style="fill:none;stroke:#263238;stroke-miterlimit:10"></polyline><polygon points="469.94 390.05 462.44 387 454.93 390.05 447.43 387 439.92 390.05 432.42 387 424.92 390.05 417.41 387 409.91 390.05 402.4 387 394.9 390.05 387.4 387 379.89 390.05 372.39 387 364.89 390.05 357.38 387 349.88 390.05 342.37 387 334.87 390.05 327.37 387 319.86 390.05 312.36 387 304.85 390.05 297.35 387 289.85 390.05 282.34 387 274.84 390.05 267.34 387 259.83 390.05 252.33 387 244.83 390.05 237.32 387 229.82 390.05 222.32 387 214.82 390.05 207.31 387 199.81 390.05 192.31 387 184.81 390.05 177.31 387 169.8 390.05 162.3 387 154.8 390.05 147.3 387 139.8 390.05 132.3 387 124.8 390.05 117.29 387 109.79 390.05 102.29 387 94.79 390.05 87.29 387 79.79 390.05 72.29 387 64.79 390.05 57.29 387 49.79 390.05 42.29 387 36 389.56 36 402.68 471 402.68 471 389.62 469.94 390.05" style="fill:#211749"></polygon></g><g id="freepik--Floor--inject-3"><line x1="27.35" y1="402.67" x2="477.09" y2="402.67" style="fill:none;stroke:#263238;stroke-linecap:round;stroke-linejoin:round"></line></g></svg>